<svg width="139" height="36" viewBox="0 0 139 36" fill="none" xmlns="http://www.w3.org/2000/svg">
<path d="M12.736 35.326C10.368 35.326 8.288 34.894 6.496 34.03C4.736 33.166 3.344 31.934 2.32 30.334C1.328 28.734 0.816 26.83 0.784 24.622H6.16C6.192 26.318 6.768 27.774 7.888 28.99C9.04 30.174 10.64 30.766 12.688 30.766C14.576 30.766 16.048 30.334 17.104 29.47C18.16 28.574 18.688 27.422 18.688 26.014C18.688 24.83 18.368 23.854 17.728 23.086C17.12 22.286 16.16 21.582 14.848 20.974C13.536 20.334 11.84 19.678 9.76 19.006C6.976 18.11 4.928 16.878 3.616 15.31C2.304 13.71 1.648 11.758 1.648 9.454C1.648 6.798 2.608 4.654 4.528 3.022C6.448 1.39 9.088 0.573999 12.448 0.573999C15.712 0.573999 18.336 1.422 20.32 3.118C22.304 4.782 23.328 7.102 23.392 10.078H17.968C17.968 9.278 17.744 8.51 17.296 7.774C16.848 7.006 16.208 6.382 15.376 5.902C14.544 5.39 13.52 5.134 12.304 5.134C10.8 5.102 9.536 5.47 8.512 6.238C7.488 6.974 6.976 7.982 6.976 9.262C6.976 10.83 7.6 12.062 8.848 12.958C10.096 13.822 12.128 14.718 14.944 15.646C16.704 16.222 18.256 16.926 19.6 17.758C20.976 18.558 22.048 19.598 22.816 20.878C23.616 22.126 24.016 23.726 24.016 25.678C24.016 27.47 23.568 29.102 22.672 30.574C21.776 32.014 20.48 33.166 18.784 34.03C17.12 34.894 15.104 35.326 12.736 35.326ZM31.2453 34.75V0.189999H36.3333V20.926L45.4533 10.942H51.8373L41.9013 21.502V21.886L53.1333 34.75H46.9413L36.3333 22.51V34.75H31.2453ZM69.4825 35.326C67.2105 35.326 65.1785 34.814 63.3865 33.79C61.5945 32.766 60.1865 31.326 59.1625 29.47C58.1385 27.582 57.6265 25.374 57.6265 22.846C57.6265 20.318 58.1385 18.126 59.1625 16.27C60.1865 14.382 61.5945 12.926 63.3865 11.902C65.1785 10.878 67.2265 10.366 69.5305 10.366C71.8345 10.366 73.8665 10.878 75.6265 11.902C77.4185 12.926 78.8105 14.382 79.8025 16.27C80.8265 18.126 81.3385 20.318 81.3385 22.846C81.3385 25.374 80.8265 27.582 79.8025 29.47C78.7785 31.326 77.3705 32.766 75.5785 33.79C73.8185 34.814 71.7865 35.326 69.4825 35.326ZM69.4825 30.478C70.6985 30.478 71.8185 30.206 72.8425 29.662C73.8665 29.118 74.6825 28.286 75.2905 27.166C75.9305 26.014 76.2505 24.574 76.2505 22.846C76.2505 21.086 75.9305 19.646 75.2905 18.526C74.6825 17.406 73.8665 16.574 72.8425 16.03C71.8505 15.486 70.7465 15.214 69.5305 15.214C68.3145 15.214 67.1945 15.486 66.1705 16.03C65.1465 16.574 64.3145 17.406 63.6745 18.526C63.0665 19.646 62.7625 21.086 62.7625 22.846C62.7625 25.47 63.4185 27.406 64.7305 28.654C66.0745 29.87 67.6585 30.478 69.4825 30.478ZM95.4797 34.75V5.71H86.4557V1.15H109.592V5.71H100.568V34.75H95.4797ZM115.045 34.75L123.205 22.846L114.757 10.942H120.421L126.565 19.822L132.709 10.942H138.373L129.925 22.846L138.085 34.75H132.421L126.565 25.87L120.661 34.75H115.045Z" fill="white"/>
</svg>
